G04 #@! TF.GenerationSoftware,KiCad,Pcbnew,9.0.7*
G04 #@! TF.CreationDate,2026-01-30T17:56:13-05:00*
G04 #@! TF.ProjectId,RaspberryPi_Hat,52617370-6265-4727-9279-50695f486174,rev?*
G04 #@! TF.SameCoordinates,Original*
G04 #@! TF.FileFunction,Legend,Top*
G04 #@! TF.FilePolarity,Positive*
%FSLAX46Y46*%
G04 Gerber Fmt 4.6, Leading zero omitted, Abs format (unit mm)*
G04 Created by KiCad (PCBNEW 9.0.7) date 2026-01-30 17:56:13*
%MOMM*%
%LPD*%
G01*
G04 APERTURE LIST*
%ADD10C,0.150000*%
%ADD11C,0.120000*%
G04 APERTURE END LIST*
D10*
X146666666Y-65994819D02*
X146666666Y-66709104D01*
X146666666Y-66709104D02*
X146619047Y-66851961D01*
X146619047Y-66851961D02*
X146523809Y-66947200D01*
X146523809Y-66947200D02*
X146380952Y-66994819D01*
X146380952Y-66994819D02*
X146285714Y-66994819D01*
X147571428Y-65994819D02*
X147380952Y-65994819D01*
X147380952Y-65994819D02*
X147285714Y-66042438D01*
X147285714Y-66042438D02*
X147238095Y-66090057D01*
X147238095Y-66090057D02*
X147142857Y-66232914D01*
X147142857Y-66232914D02*
X147095238Y-66423390D01*
X147095238Y-66423390D02*
X147095238Y-66804342D01*
X147095238Y-66804342D02*
X147142857Y-66899580D01*
X147142857Y-66899580D02*
X147190476Y-66947200D01*
X147190476Y-66947200D02*
X147285714Y-66994819D01*
X147285714Y-66994819D02*
X147476190Y-66994819D01*
X147476190Y-66994819D02*
X147571428Y-66947200D01*
X147571428Y-66947200D02*
X147619047Y-66899580D01*
X147619047Y-66899580D02*
X147666666Y-66804342D01*
X147666666Y-66804342D02*
X147666666Y-66566247D01*
X147666666Y-66566247D02*
X147619047Y-66471009D01*
X147619047Y-66471009D02*
X147571428Y-66423390D01*
X147571428Y-66423390D02*
X147476190Y-66375771D01*
X147476190Y-66375771D02*
X147285714Y-66375771D01*
X147285714Y-66375771D02*
X147190476Y-66423390D01*
X147190476Y-66423390D02*
X147142857Y-66471009D01*
X147142857Y-66471009D02*
X147095238Y-66566247D01*
X136666666Y-66074819D02*
X136666666Y-66789104D01*
X136666666Y-66789104D02*
X136619047Y-66931961D01*
X136619047Y-66931961D02*
X136523809Y-67027200D01*
X136523809Y-67027200D02*
X136380952Y-67074819D01*
X136380952Y-67074819D02*
X136285714Y-67074819D01*
X137095238Y-66170057D02*
X137142857Y-66122438D01*
X137142857Y-66122438D02*
X137238095Y-66074819D01*
X137238095Y-66074819D02*
X137476190Y-66074819D01*
X137476190Y-66074819D02*
X137571428Y-66122438D01*
X137571428Y-66122438D02*
X137619047Y-66170057D01*
X137619047Y-66170057D02*
X137666666Y-66265295D01*
X137666666Y-66265295D02*
X137666666Y-66360533D01*
X137666666Y-66360533D02*
X137619047Y-66503390D01*
X137619047Y-66503390D02*
X137047619Y-67074819D01*
X137047619Y-67074819D02*
X137666666Y-67074819D01*
X127914819Y-56333333D02*
X128629104Y-56333333D01*
X128629104Y-56333333D02*
X128771961Y-56380952D01*
X128771961Y-56380952D02*
X128867200Y-56476190D01*
X128867200Y-56476190D02*
X128914819Y-56619047D01*
X128914819Y-56619047D02*
X128914819Y-56714285D01*
X127914819Y-55380952D02*
X127914819Y-55857142D01*
X127914819Y-55857142D02*
X128391009Y-55904761D01*
X128391009Y-55904761D02*
X128343390Y-55857142D01*
X128343390Y-55857142D02*
X128295771Y-55761904D01*
X128295771Y-55761904D02*
X128295771Y-55523809D01*
X128295771Y-55523809D02*
X128343390Y-55428571D01*
X128343390Y-55428571D02*
X128391009Y-55380952D01*
X128391009Y-55380952D02*
X128486247Y-55333333D01*
X128486247Y-55333333D02*
X128724342Y-55333333D01*
X128724342Y-55333333D02*
X128819580Y-55380952D01*
X128819580Y-55380952D02*
X128867200Y-55428571D01*
X128867200Y-55428571D02*
X128914819Y-55523809D01*
X128914819Y-55523809D02*
X128914819Y-55761904D01*
X128914819Y-55761904D02*
X128867200Y-55857142D01*
X128867200Y-55857142D02*
X128819580Y-55904761D01*
X141166666Y-52534819D02*
X141166666Y-53249104D01*
X141166666Y-53249104D02*
X141119047Y-53391961D01*
X141119047Y-53391961D02*
X141023809Y-53487200D01*
X141023809Y-53487200D02*
X140880952Y-53534819D01*
X140880952Y-53534819D02*
X140785714Y-53534819D01*
X142071428Y-52868152D02*
X142071428Y-53534819D01*
X141833333Y-52487200D02*
X141595238Y-53201485D01*
X141595238Y-53201485D02*
X142214285Y-53201485D01*
X123666666Y-67574819D02*
X123666666Y-68289104D01*
X123666666Y-68289104D02*
X123619047Y-68431961D01*
X123619047Y-68431961D02*
X123523809Y-68527200D01*
X123523809Y-68527200D02*
X123380952Y-68574819D01*
X123380952Y-68574819D02*
X123285714Y-68574819D01*
X124047619Y-67574819D02*
X124666666Y-67574819D01*
X124666666Y-67574819D02*
X124333333Y-67955771D01*
X124333333Y-67955771D02*
X124476190Y-67955771D01*
X124476190Y-67955771D02*
X124571428Y-68003390D01*
X124571428Y-68003390D02*
X124619047Y-68051009D01*
X124619047Y-68051009D02*
X124666666Y-68146247D01*
X124666666Y-68146247D02*
X124666666Y-68384342D01*
X124666666Y-68384342D02*
X124619047Y-68479580D01*
X124619047Y-68479580D02*
X124571428Y-68527200D01*
X124571428Y-68527200D02*
X124476190Y-68574819D01*
X124476190Y-68574819D02*
X124190476Y-68574819D01*
X124190476Y-68574819D02*
X124095238Y-68527200D01*
X124095238Y-68527200D02*
X124047619Y-68479580D01*
D11*
X145620000Y-67540000D02*
X147000000Y-67540000D01*
X145620000Y-68920000D02*
X145620000Y-67540000D01*
X145620000Y-70190000D02*
X145620000Y-75380000D01*
X145620000Y-70190000D02*
X148380000Y-70190000D01*
X145620000Y-75380000D02*
X148380000Y-75380000D01*
X148380000Y-70190000D02*
X148380000Y-75380000D01*
X135620000Y-67620000D02*
X137000000Y-67620000D01*
X135620000Y-69000000D02*
X135620000Y-67620000D01*
X135620000Y-70270000D02*
X135620000Y-75460000D01*
X135620000Y-70270000D02*
X138380000Y-70270000D01*
X135620000Y-75460000D02*
X138380000Y-75460000D01*
X138380000Y-70270000D02*
X138380000Y-75460000D01*
X114540000Y-54620000D02*
X114540000Y-57380000D01*
X124810000Y-54620000D02*
X114540000Y-54620000D01*
X124810000Y-54620000D02*
X124810000Y-57380000D01*
X124810000Y-57380000D02*
X114540000Y-57380000D01*
X126080000Y-54620000D02*
X127460000Y-54620000D01*
X127460000Y-54620000D02*
X127460000Y-56000000D01*
X140120000Y-54080000D02*
X141500000Y-54080000D01*
X140120000Y-55460000D02*
X140120000Y-54080000D01*
X140120000Y-56730000D02*
X140120000Y-59380000D01*
X140120000Y-56730000D02*
X142880000Y-56730000D01*
X140120000Y-59380000D02*
X142880000Y-59380000D01*
X142880000Y-56730000D02*
X142880000Y-59380000D01*
X122620000Y-69120000D02*
X124000000Y-69120000D01*
X122620000Y-70500000D02*
X122620000Y-69120000D01*
X122620000Y-71770000D02*
X122620000Y-74420000D01*
X122620000Y-71770000D02*
X125380000Y-71770000D01*
X122620000Y-74420000D02*
X125380000Y-74420000D01*
X125380000Y-71770000D02*
X125380000Y-74420000D01*
M02*
