M48
; DRILL file {KiCad 9.0.7} date 2026-01-30T17:56:22-0500
; FORMAT={-:-/ absolute / metric / decimal}
; #@! TF.CreationDate,2026-01-30T17:56:22-05:00
; #@! TF.GenerationSoftware,Kicad,Pcbnew,9.0.7
; #@! TF.FileFunction,Plated,1,2,PTH
FMAT,2
METRIC
; #@! TA.AperFunction,Plated,PTH,ComponentDrill
T1C1.000
%
G90
G05
T1
X108.37Y-46.23
X108.37Y-48.77
X110.91Y-46.23
X110.91Y-48.77
X113.45Y-46.23
X113.45Y-48.77
X115.92Y-56.0
X115.99Y-46.23
X115.99Y-48.77
X118.46Y-56.0
X118.53Y-46.23
X118.53Y-48.77
X121.0Y-56.0
X121.07Y-46.23
X121.07Y-48.77
X123.54Y-56.0
X123.61Y-46.23
X123.61Y-48.77
X124.0Y-70.5
X124.0Y-73.04
X126.08Y-56.0
X126.15Y-46.23
X126.15Y-48.77
X128.69Y-46.23
X128.69Y-48.77
X131.23Y-46.23
X131.23Y-48.77
X133.77Y-46.23
X133.77Y-48.77
X136.31Y-46.23
X136.31Y-48.77
X137.0Y-69.0
X137.0Y-71.54
X137.0Y-74.08
X138.85Y-46.23
X138.85Y-48.77
X141.39Y-46.23
X141.39Y-48.77
X141.5Y-55.46
X141.5Y-58.0
X143.93Y-46.23
X143.93Y-48.77
X146.47Y-46.23
X146.47Y-48.77
X147.0Y-68.92
X147.0Y-71.46
X147.0Y-74.0
X149.01Y-46.23
X149.01Y-48.77
X151.55Y-46.23
X151.55Y-48.77
X154.09Y-46.23
X154.09Y-48.77
X156.63Y-46.23
X156.63Y-48.77
M30
