G04 #@! TF.GenerationSoftware,KiCad,Pcbnew,9.0.7*
G04 #@! TF.CreationDate,2026-01-30T17:56:13-05:00*
G04 #@! TF.ProjectId,RaspberryPi_Hat,52617370-6265-4727-9279-50695f486174,rev?*
G04 #@! TF.SameCoordinates,Original*
G04 #@! TF.FileFunction,Copper,L1,Top*
G04 #@! TF.FilePolarity,Positive*
%FSLAX46Y46*%
G04 Gerber Fmt 4.6, Leading zero omitted, Abs format (unit mm)*
G04 Created by KiCad (PCBNEW 9.0.7) date 2026-01-30 17:56:13*
%MOMM*%
%LPD*%
G01*
G04 APERTURE LIST*
G04 #@! TA.AperFunction,ComponentPad*
%ADD10R,1.700000X1.700000*%
G04 #@! TD*
G04 #@! TA.AperFunction,ComponentPad*
%ADD11C,1.700000*%
G04 #@! TD*
G04 #@! TA.AperFunction,ComponentPad*
%ADD12O,1.700000X1.700000*%
G04 #@! TD*
G04 #@! TA.AperFunction,Conductor*
%ADD13C,0.200000*%
G04 #@! TD*
G04 APERTURE END LIST*
D10*
X147000000Y-68920000D03*
D11*
X147000000Y-71460000D03*
X147000000Y-74000000D03*
D10*
X137000000Y-69000000D03*
D11*
X137000000Y-71540000D03*
X137000000Y-74080000D03*
D10*
X126080000Y-56000000D03*
D11*
X123540000Y-56000000D03*
X121000000Y-56000000D03*
X118460000Y-56000000D03*
X115920000Y-56000000D03*
D10*
X141500000Y-55460000D03*
D11*
X141500000Y-58000000D03*
D10*
X124000000Y-70500000D03*
D11*
X124000000Y-73040000D03*
D10*
X108370000Y-48770000D03*
D12*
X108370000Y-46230000D03*
X110910000Y-48770000D03*
X110910000Y-46230000D03*
X113450000Y-48770000D03*
X113450000Y-46230000D03*
X115990000Y-48770000D03*
X115990000Y-46230000D03*
X118530000Y-48770000D03*
X118530000Y-46230000D03*
X121070000Y-48770000D03*
X121070000Y-46230000D03*
X123610000Y-48770000D03*
X123610000Y-46230000D03*
X126150000Y-48770000D03*
X126150000Y-46230000D03*
X128690000Y-48770000D03*
X128690000Y-46230000D03*
X131230000Y-48770000D03*
X131230000Y-46230000D03*
X133770000Y-48770000D03*
X133770000Y-46230000D03*
X136310000Y-48770000D03*
X136310000Y-46230000D03*
X138850000Y-48770000D03*
X138850000Y-46230000D03*
X141390000Y-48770000D03*
X141390000Y-46230000D03*
X143930000Y-48770000D03*
X143930000Y-46230000D03*
X146470000Y-48770000D03*
X146470000Y-46230000D03*
X149010000Y-48770000D03*
X149010000Y-46230000D03*
X151550000Y-48770000D03*
X151550000Y-46230000D03*
X154090000Y-48770000D03*
X154090000Y-46230000D03*
X156630000Y-48770000D03*
X156630000Y-46230000D03*
D13*
X115920000Y-56000000D02*
X115920000Y-51580000D01*
X118530000Y-51470000D02*
X118530000Y-48770000D01*
X115920000Y-51580000D02*
X116000000Y-51500000D01*
X118500000Y-51500000D02*
X118530000Y-51470000D01*
X116000000Y-51500000D02*
X118500000Y-51500000D01*
X126080000Y-50001000D02*
X126000000Y-49921000D01*
X126080000Y-56000000D02*
X126080000Y-50001000D01*
X121000000Y-56000000D02*
X121000000Y-49921000D01*
X123540000Y-49961000D02*
X123500000Y-49921000D01*
X123540000Y-56000000D02*
X123540000Y-49961000D01*
X108500000Y-59000000D02*
X108500000Y-50000000D01*
X118460000Y-58960000D02*
X118500000Y-59000000D01*
X118460000Y-56000000D02*
X118460000Y-58960000D01*
X118500000Y-59000000D02*
X108500000Y-59000000D01*
M02*
